<svg width="386.7" height="119.7" viewBox="0 0 386.7 119.7" xmlns="http://www.w3.org/2000/svg"><g id="svgGroup" stroke-linecap="round" fill-rule="evenodd" font-size="9pt" stroke="#2079bd00" stroke-width="0.25mm" fill="#2079bd" style="stroke:#2079bd00;stroke-width:0.25mm;fill:#2079bd"><path d="M 282.4 52.1 L 275.8 48.7 L 275.6 48.4 A 7.398 7.398 0 0 0 275.473 47.069 A 10.087 10.087 0 0 0 275.15 45.8 Q 274.7 44.4 274.1 43 Q 273.5 41.6 272.75 40.25 Q 272 38.9 271.4 37.7 L 270.7 37.3 Q 272 40.4 273.4 42.9 Q 274.8 45.4 274.8 48.2 L 275.3 48.8 L 274.4 48.4 L 274.4 47.8 Q 272.6 44.3 270.95 40.15 A 122.998 122.998 0 0 0 268.894 35.275 A 99.931 99.931 0 0 0 267.6 32.5 Q 266.6 39.2 265.1 45.9 Q 263.6 52.6 261.3 58.9 Q 259.3 64.3 256.5 69.25 Q 253.7 74.2 251.8 79.7 L 251 79.1 L 249.9 79.3 A 1.291 1.291 0 0 1 249.457 79.119 Q 249.136 78.904 249.04 78.487 A 1.735 1.735 0 0 1 249 78.1 A 5.436 5.436 0 0 1 249.042 77.451 Q 249.082 77.123 249.158 76.753 A 12.088 12.088 0 0 1 249.3 76.15 A 23.414 23.414 0 0 1 249.913 74.174 A 26.251 26.251 0 0 1 250.05 73.8 Q 250.5 72.6 251 71.45 Q 251.5 70.3 251.8 69.6 L 250.9 69.3 A 19.037 19.037 0 0 1 250.758 69.578 Q 250.384 70.294 249.45 72 Q 248.3 74.1 246.95 76.3 A 70.782 70.782 0 0 1 245.447 78.648 A 56.438 56.438 0 0 1 244.3 80.3 Q 243.227 81.785 242.563 82.045 A 0.725 0.725 0 0 1 242.3 82.1 Q 241.8 81.8 241.6 81.15 Q 241.443 80.64 241.409 80.222 A 2.757 2.757 0 0 1 241.4 80 A 16.62 16.62 0 0 1 241.552 77.86 Q 241.854 75.555 242.75 72.5 Q 244.1 67.9 245.9 62.95 Q 247.7 58 249.55 53.3 Q 251.4 48.6 252.4 45.4 A 69.574 69.574 0 0 0 253.466 41.724 A 83.972 83.972 0 0 0 254.05 39.35 Q 254.8 36.1 255.35 32.75 Q 255.9 29.4 256.3 26.1 Q 256.7 22.8 257 19.8 Q 258.7 18.5 261.65 17.6 A 74.084 74.084 0 0 0 265.151 16.44 A 60.376 60.376 0 0 0 267.1 15.7 Q 272.5 20.1 276.4 25.8 A 63.661 63.661 0 0 1 281.29 34.346 A 76.223 76.223 0 0 1 283.2 38.7 A 43.772 43.772 0 0 0 285.55 34.716 A 52.203 52.203 0 0 0 286.55 32.7 Q 288.1 29.4 289.4 25.85 Q 290.7 22.3 291.9 18.8 A 149.396 149.396 0 0 1 293.4 14.62 A 121.779 121.779 0 0 1 294.3 12.3 A 32.409 32.409 0 0 1 299.207 11.152 A 35.543 35.543 0 0 1 299.55 11.1 Q 302.3 10.7 305 10.2 Q 307.7 15.8 310.1 20.9 Q 312.5 26 314.55 31.15 Q 316.6 36.3 318.25 41.7 A 125.124 125.124 0 0 1 320.176 48.763 A 148.642 148.642 0 0 1 321.2 53.3 Q 321.8 56.5 322.7 59.75 Q 323.6 63 324.35 66.3 Q 325.1 69.6 325.65 72.9 Q 326.2 76.2 326.2 79.5 A 0.989 0.989 0 0 1 326.176 79.707 Q 326.132 79.911 326.008 80.179 A 4.222 4.222 0 0 1 325.95 80.3 A 0.956 0.956 0 0 1 325.516 80.725 Q 325.266 80.854 324.9 80.9 Q 323.3 71.5 321.4 62.3 Q 319.5 53.3 316.7 44.4 Q 319.2 53.3 321 62.1 Q 322.9 71.2 324.3 80.6 L 322.9 81.4 Q 323.1 82.6 323.4 83.9 A 11.701 11.701 0 0 1 323.669 85.621 A 10.016 10.016 0 0 1 323.7 86.4 Q 323.7 86.7 323.65 87.65 A 20.131 20.131 0 0 1 323.486 89.351 A 22.093 22.093 0 0 1 323.45 89.6 A 7.457 7.457 0 0 1 323.258 90.51 A 5.502 5.502 0 0 1 322.95 91.35 Q 322.753 91.773 322.476 91.957 A 0.84 0.84 0 0 1 322 92.1 Q 321.422 92.1 320.798 91.404 A 4.203 4.203 0 0 1 320.75 91.35 A 8.353 8.353 0 0 1 320.05 90.411 A 10.931 10.931 0 0 1 319.55 89.55 Q 319 88.5 318.55 87.55 Q 318.205 86.823 318.007 86.359 A 12.215 12.215 0 0 1 317.9 86.1 A 148.257 148.257 0 0 0 317.103 79.228 Q 316.619 75.722 315.941 71.866 A 240.167 240.167 0 0 0 315.85 71.35 Q 314.4 63.2 312.4 54.85 Q 310.4 46.5 307.85 38.65 A 144.695 144.695 0 0 0 305.321 31.479 Q 304.03 28.118 302.68 25.189 A 87.916 87.916 0 0 0 302.5 24.8 L 302.4 25.3 Q 305.6 32.1 307.9 39.25 Q 310.2 46.4 311.9 53.75 Q 313.6 61.1 314.8 68.55 Q 316 76 316.9 83.3 Q 314.8 78.7 313.55 73.95 Q 312.3 69.2 311.35 64.45 Q 310.4 59.7 309.45 54.9 Q 308.5 50.1 307.1 45.2 L 307.8 43.2 Q 306.4 39.1 304.95 35.1 Q 303.5 31.1 301.6 27.3 L 301.2 28.3 Q 300.444 30.363 299.404 32.898 A 206.464 206.464 0 0 1 298.4 35.3 Q 296.7 39.3 294.4 43.1 A 40.375 40.375 0 0 1 290.299 48.747 A 36.581 36.581 0 0 1 289.25 49.9 A 16.295 16.295 0 0 1 286.457 52.273 A 12.725 12.725 0 0 1 283 53.9 Q 280.9 52.6 278.75 51.45 Q 276.6 50.3 274.4 49.1 L 274.4 48.5 L 278.4 50.7 Q 280.4 51.8 282.4 53 L 283.2 52.8 Q 286.576 50.837 288.935 48.874 A 26.061 26.061 0 0 0 290.15 47.8 Q 292.8 45.3 294.7 42.3 A 36.205 36.205 0 0 0 297 38.04 A 43.752 43.752 0 0 0 298.05 35.55 Q 299.296 32.327 300.875 28.329 A 1591.409 1591.409 0 0 1 301.4 27 L 301 26.1 L 300.6 27 L 298.9 30.9 Q 297.9 33.3 296.45 36.05 A 95.972 95.972 0 0 1 294.106 40.231 A 107.071 107.071 0 0 1 293.25 41.65 A 65.666 65.666 0 0 1 291.043 45.017 A 54.654 54.654 0 0 1 289.7 46.85 Q 287.93 49.161 286.063 50.602 A 14.772 14.772 0 0 1 286 50.65 Q 284.1 52.1 282.4 52.1 Z M 137.7 49.9 L 140.5 50.7 L 140.5 50.5 L 137.9 49.7 L 139.6 46.8 L 151.3 50.4 Q 151.3 53.7 151.65 57.15 Q 152 60.6 152.45 64.2 Q 152.9 67.8 153.25 71.55 Q 153.6 75.3 153.6 79.1 Q 153.6 84.2 152.7 89.4 Q 151.8 94.6 149.75 99.3 Q 147.7 104 144.35 108 Q 141 112 136 114.6 Q 133.901 115.999 130.866 117.247 A 48.229 48.229 0 0 1 129.05 117.95 Q 124.8 119.5 120.7 119.7 L 119.5 119.7 Q 115.5 119.7 112.8 118.85 Q 110.857 118.238 109.483 117.523 A 11.343 11.343 0 0 1 108.5 116.95 A 13.52 13.52 0 0 1 107.595 116.306 Q 106.735 115.633 106.288 115.005 A 3.727 3.727 0 0 1 106.25 114.95 A 18.222 18.222 0 0 1 106.029 114.62 Q 105.63 114.009 105.602 113.826 A 0.169 0.169 0 0 1 105.6 113.8 A 0.576 0.576 0 0 1 105.62 113.642 Q 105.671 113.464 105.852 113.417 A 0.589 0.589 0 0 1 106 113.4 Q 109.1 115.7 112.7 116.7 Q 116.3 117.7 119.9 117.7 A 27.176 27.176 0 0 0 128.882 116.235 A 25.493 25.493 0 0 0 131.2 115.3 Q 136.2 112.9 140.2 109.3 Q 136.2 112.8 131.1 115.1 Q 125.9 117.4 120 117.4 Q 116.5 117.4 113.15 116.4 A 18.475 18.475 0 0 1 107.082 113.242 A 20.984 20.984 0 0 1 106.9 113.1 Q 107.2 113.1 107.6 112.95 A 0.742 0.742 0 0 0 107.798 112.842 Q 107.984 112.697 107.999 112.444 A 0.76 0.76 0 0 0 108 112.4 L 107.2 111.7 A 23.713 23.713 0 0 1 106.64 111.119 Q 106.392 110.853 106.119 110.548 A 50.096 50.096 0 0 1 105.55 109.9 Q 104.6 108.8 103.85 107.3 Q 103.1 105.8 103.1 104.1 Q 103.1 102.504 104.246 102.406 A 1.816 1.816 0 0 1 104.4 102.4 A 1.938 1.938 0 0 1 105.14 102.561 Q 105.731 102.805 106.408 103.421 A 8.594 8.594 0 0 1 106.7 103.7 A 45.936 45.936 0 0 0 107.933 104.885 Q 108.574 105.48 109.304 106.119 A 78.577 78.577 0 0 0 109.8 106.55 A 19.232 19.232 0 0 0 111.993 108.171 A 25.505 25.505 0 0 0 114.15 109.4 A 11.548 11.548 0 0 0 117.319 110.451 A 15.881 15.881 0 0 0 120.2 110.7 A 22.061 22.061 0 0 0 125.509 110.083 A 18.562 18.562 0 0 0 129.2 108.75 Q 133.2 106.8 136.2 103.4 Q 133.3 106.6 129.45 108.4 A 19.023 19.023 0 0 1 123.803 110.006 A 24.121 24.121 0 0 1 120.7 110.2 Q 117.7 110.2 115.05 109.2 A 13.21 13.21 0 0 1 112.864 108.15 A 9.749 9.749 0 0 1 110.8 106.5 A 51.87 51.87 0 0 0 111.703 106.756 Q 113.138 107.15 115.05 107.6 Q 117.6 108.2 120.6 108.2 A 17.992 17.992 0 0 0 126.417 107.284 A 16.09 16.09 0 0 0 130.15 105.45 Q 134.3 102.7 137.3 98.5 L 138.7 98.7 Q 141 94.7 141.95 90.15 A 45.939 45.939 0 0 0 142.883 81.92 A 51.708 51.708 0 0 0 142.9 80.6 Q 142.9 77.2 142.6 73.7 Q 142.3 70.2 141.8 66.6 L 141.3 67.3 Q 141.8 70.8 142.05 74.15 Q 142.3 77.5 142.3 80.7 Q 142.3 84.7 141.5 88.65 Q 140.7 92.6 139 95.9 Q 140.7 92.4 141.4 88.45 Q 142.1 84.5 142.1 80 Q 141.6 77.4 141.6 74.8 Q 141.6 72.2 141.4 69.6 L 141.2 67.6 Q 140.664 68.366 139.718 69.6 A 143.039 143.039 0 0 1 139.1 70.4 A 27.536 27.536 0 0 1 137.047 72.741 A 33.256 33.256 0 0 1 135.8 73.95 Q 133.9 75.7 131.55 77 Q 129.2 78.3 126.6 78.3 L 124.1 78.6 Q 118.8 78.6 114.6 75.9 Q 110.4 73.2 107.4 69.05 Q 104.4 64.9 102.8 59.95 A 33.51 33.51 0 0 1 101.464 54.195 A 27.926 27.926 0 0 1 101.2 50.4 Q 101.1 49.9 101.1 49.6 L 101.1 48.7 A 28.502 28.502 0 0 1 101.521 43.678 A 20.592 20.592 0 0 1 103.3 38.15 Q 105.5 33.7 109.35 30.9 Q 113.2 28.1 118.4 26.75 A 42.41 42.41 0 0 1 126.288 25.507 A 50.477 50.477 0 0 1 129.6 25.4 A 55.147 55.147 0 0 1 142.901 27.07 A 61.567 61.567 0 0 1 143.8 27.3 A 1.277 1.277 0 0 0 143.538 27.419 Q 143.387 27.511 143.304 27.636 A 0.642 0.642 0 0 0 143.2 28 Q 143.2 28.4 143.35 28.75 Q 143.5 29.1 143.5 29.5 L 143.5 29.7 Q 143.2 30.2 142.1 30.2 A 11.558 11.558 0 0 1 141.402 30.176 Q 140.642 30.13 139.579 29.993 A 51.01 51.01 0 0 1 138.9 29.9 Q 137.292 29.67 134.688 29.323 A 1064.111 1064.111 0 0 0 133 29.1 L 133 30.3 A 35.047 35.047 0 0 1 135.597 30.699 Q 136.875 30.948 137.971 31.279 A 18.488 18.488 0 0 1 138.8 31.55 Q 140.638 32.201 141.947 32.939 A 11.853 11.853 0 0 1 142.7 33.4 Q 144.2 34.4 144.85 35.3 Q 145.5 36.2 145.5 36.8 A 0.536 0.536 0 0 1 145.431 37.074 Q 145.366 37.187 145.239 37.264 A 0.918 0.918 0 0 1 145.05 37.35 A 2.983 2.983 0 0 1 144.104 37.5 A 3.177 3.177 0 0 1 144.1 37.5 A 10.219 10.219 0 0 1 143.465 37.477 Q 142.421 37.41 140.558 37.156 A 101.09 101.09 0 0 1 140.15 37.1 A 35.717 35.717 0 0 0 137.862 36.86 Q 136.658 36.77 135.27 36.731 A 80.077 80.077 0 0 0 133 36.7 A 59.986 59.986 0 0 0 128.07 36.895 A 50.066 50.066 0 0 0 125.3 37.2 A 22.038 22.038 0 0 0 122.035 37.896 A 16.408 16.408 0 0 0 119.05 39.1 Q 116.4 40.5 114.9 43 A 9.712 9.712 0 0 0 113.83 45.648 Q 113.4 47.359 113.4 49.5 Q 113.4 52.8 114.45 55.8 A 25.124 25.124 0 0 0 115.873 59.116 A 20.498 20.498 0 0 0 117.05 61.1 Q 118.6 63.4 120.5 64.75 A 8.519 8.519 0 0 0 121.904 65.569 Q 122.78 65.967 123.633 66.067 A 4.892 4.892 0 0 0 124.2 66.1 Q 125.4 66.1 127.15 64.4 A 32.945 32.945 0 0 0 128.72 62.759 Q 129.495 61.895 130.306 60.887 A 57.172 57.172 0 0 0 130.85 60.2 Q 132.8 57.7 134.6 54.9 A 196.922 196.922 0 0 0 136.079 52.565 Q 136.746 51.494 137.324 50.531 A 111.063 111.063 0 0 0 137.7 49.9 Z M 225.7 39.8 L 225 38.9 Q 223.462 39.466 222.514 39.673 A 6.484 6.484 0 0 1 222.1 39.75 A 13.805 13.805 0 0 1 220.426 39.894 A 15.712 15.712 0 0 1 220 39.9 Q 218.8 39.9 217.55 39.85 Q 216.3 39.8 214.8 39.8 Q 214.8 40.125 214.758 40.366 A 1.641 1.641 0 0 1 214.7 40.6 A 177.248 177.248 0 0 0 216.327 40.593 Q 216.963 40.587 217.532 40.576 A 86.857 86.857 0 0 0 218.6 40.55 A 28.527 28.527 0 0 0 219.898 40.477 Q 220.48 40.432 221.131 40.363 A 58.796 58.796 0 0 0 222.5 40.2 Q 220.816 40.506 219.454 40.695 A 46.967 46.967 0 0 1 218.65 40.8 Q 217.387 40.953 215.742 40.989 A 47.811 47.811 0 0 1 214.7 41 Q 214.3 43.3 214 45.5 Q 213.7 47.7 213.7 49.8 A 34.528 34.528 0 0 0 213.714 50.756 Q 213.738 51.6 213.8 52.6 Q 213.9 54.2 214.05 55.85 Q 214.2 57.5 214.3 58.95 Q 214.398 60.374 214.4 61.074 A 10.107 10.107 0 0 1 214.4 61.1 L 214.4 67.1 A 3.931 3.931 0 0 0 215.93 69.336 Q 216.513 69.772 217.3 70.1 A 10.492 10.492 0 0 0 219.101 70.649 Q 220.885 71.037 223.368 71.091 A 37.883 37.883 0 0 0 224.2 71.1 L 227.4 71.1 Q 229.1 71.1 229.75 71.45 A 1.605 1.605 0 0 1 230.064 71.667 A 0.951 0.951 0 0 1 230.4 72.4 A 0.451 0.451 0 0 1 230.143 72.822 Q 229.959 72.922 229.643 72.947 A 2.476 2.476 0 0 1 229.6 72.95 Q 228.8 73 228 73 A 46.852 46.852 0 0 1 223.871 72.811 A 54.982 54.982 0 0 1 221.9 72.6 Q 218.9 72.2 216 71.7 A 117.363 117.363 0 0 0 220.519 72.694 A 133.698 133.698 0 0 0 222.1 73 A 43.608 43.608 0 0 0 227.33 73.482 A 39.157 39.157 0 0 0 228.5 73.5 L 229.4 73.5 Q 229.772 73.5 230.23 73.414 A 6.465 6.465 0 0 0 230.3 73.4 A 8.6 8.6 0 0 0 230.312 73.868 Q 230.325 74.097 230.35 74.3 Q 230.393 74.644 230.547 75.061 A 5.356 5.356 0 0 0 230.6 75.2 L 231.4 75 A 3.014 3.014 0 0 1 231.703 74.917 Q 231.888 74.877 232.1 74.85 A 1.507 1.507 0 0 0 232.338 74.802 Q 232.565 74.735 232.7 74.6 A 8.208 8.208 0 0 1 233.828 74.778 Q 235.098 75.08 235.589 75.771 A 1.728 1.728 0 0 1 235.9 76.8 A 3.307 3.307 0 0 1 235.808 77.598 A 2.406 2.406 0 0 1 235.3 78.6 A 4.142 4.142 0 0 1 233.925 79.642 A 4.821 4.821 0 0 1 233.8 79.7 A 6.941 6.941 0 0 1 232.468 80.132 A 8.386 8.386 0 0 1 231.8 80.25 A 16.344 16.344 0 0 1 230.335 80.385 A 13.98 13.98 0 0 1 229.7 80.4 Q 226.2 80.4 222.85 79.95 Q 219.5 79.5 216.3 79 A 25.394 25.394 0 0 0 218.611 79.694 Q 220.713 80.225 223.4 80.6 Q 227.7 81.2 232.1 81.2 A 8.29 8.29 0 0 1 230.694 81.909 A 10.84 10.84 0 0 1 229.5 82.3 Q 228 82.7 226.4 82.7 L 219.2 81.8 Q 218.046 81.635 217.334 81.47 A 8.837 8.837 0 0 1 217.05 81.4 Q 216.3 81.2 215.6 80.95 Q 214.9 80.7 214.05 80.4 Q 213.2 80.1 211.7 79.7 L 211.7 78.6 A 9.954 9.954 0 0 1 209.418 77.688 A 7.931 7.931 0 0 1 207.5 76.2 A 13.587 13.587 0 0 1 205.267 73.057 A 12.664 12.664 0 0 1 205 72.5 A 15.28 15.28 0 0 1 203.84 68.706 A 14.314 14.314 0 0 1 203.8 68.45 A 31.625 31.625 0 0 1 203.595 66.742 Q 203.518 65.895 203.503 65.143 A 17.839 17.839 0 0 1 203.5 64.8 Q 203.5 63.1 203.55 61.65 Q 203.6 60.2 203.6 58.7 Q 203.6 57.6 203.55 55.9 Q 203.5 54.2 203.4 52.3 Q 203.3 50.4 203.25 48.4 Q 203.2 46.4 203.2 44.6 Q 203.2 43.5 203.25 42.5 A 28.818 28.818 0 0 1 203.311 41.564 Q 203.349 41.106 203.4 40.7 L 202.4 40.7 Q 202.3 41.4 202.3 42.3 L 202.3 44.1 Q 202.3 47 202.4 49.85 Q 202.5 52.7 202.55 55.1 A 155.107 155.107 0 0 0 202.595 56.809 Q 202.616 57.482 202.642 58.093 A 83.497 83.497 0 0 0 202.7 59.25 A 108.834 108.834 0 0 1 202.744 60.066 Q 202.797 61.144 202.8 61.739 A 13.662 13.662 0 0 1 202.8 61.8 L 202.8 65.8 L 202.8 66.6 L 202.9 67.3 L 202.8 66.6 Q 202.5 63.9 202.2 58.9 Q 201.9 53.1 201.9 46.1 L 201.9 44.3 Q 201.9 43.2 201.95 42.2 A 9.253 9.253 0 0 1 201.99 41.677 Q 202.044 41.174 202.149 40.842 A 2.074 2.074 0 0 1 202.2 40.7 L 198.8 40.5 A 11.922 11.922 0 0 0 197.322 39.695 A 10.17 10.17 0 0 0 196.6 39.4 Q 195.629 39.047 194.814 39.006 A 4.215 4.215 0 0 0 194.6 39 L 194.6 37 A 4.076 4.076 0 0 1 194.629 36.504 Q 194.661 36.241 194.73 36.014 A 2.423 2.423 0 0 1 194.75 35.95 A 0.567 0.567 0 0 1 195.07 35.609 Q 195.306 35.5 195.7 35.5 Q 195.861 35.5 196.409 35.629 A 22.156 22.156 0 0 1 196.7 35.7 L 196.7 34.5 Q 195.6 33.9 194.9 32.85 A 4.373 4.373 0 0 1 194.392 31.838 A 3.502 3.502 0 0 1 194.2 30.7 Q 194.2 28.526 196.788 28.17 A 8.194 8.194 0 0 1 197.9 28.1 A 21.469 21.469 0 0 1 200.241 28.232 A 24.185 24.185 0 0 1 200.8 28.3 A 44.191 44.191 0 0 0 203.7 28.587 A 48.185 48.185 0 0 0 203.9 28.6 A 481.621 481.621 0 0 0 204.253 26.636 Q 204.417 25.712 204.56 24.884 A 287.669 287.669 0 0 0 204.6 24.65 Q 204.9 22.9 205.2 21.25 Q 205.5 19.6 205.9 17.95 A 40.719 40.719 0 0 1 206.545 15.61 A 48.079 48.079 0 0 1 206.9 14.5 Q 207.8 12.5 208.3 10.15 Q 208.8 7.8 209 5.5 L 211.1 5.6 A 1.384 1.384 0 0 1 211.556 5.673 A 1.21 1.21 0 0 1 211.95 5.9 A 0.71 0.71 0 0 1 212.127 6.148 Q 212.3 6.526 212.3 7.3 A 7.28 7.28 0 0 1 212.271 7.921 Q 212.215 8.564 212.055 9.416 A 24.921 24.921 0 0 1 212 9.7 L 213.2 10 Q 213.844 7.827 214.714 6.302 A 10.857 10.857 0 0 1 215.15 5.6 A 7.182 7.182 0 0 1 215.686 4.897 Q 216.311 4.182 216.92 3.98 A 1.515 1.515 0 0 1 217.4 3.9 A 1.336 1.336 0 0 1 218.492 4.505 Q 219.178 5.417 219.448 7.707 A 20.209 20.209 0 0 1 219.5 8.2 L 219.5 10 Q 219.5 12.6 219.15 14.85 Q 218.8 17.1 218.3 19.3 Q 217.8 21.5 217.3 23.8 Q 216.8 26.1 216.4 28.8 Q 218.6 29.1 220.7 29.1 Q 221.7 29.1 222.7 29.05 Q 223.7 29 224.7 29 A 2.86 2.86 0 0 0 225.709 28.806 Q 226.092 28.662 226.488 28.412 A 5.769 5.769 0 0 0 226.8 28.2 A 5.61 5.61 0 0 1 227.468 27.778 Q 227.825 27.589 228.158 27.495 A 2.349 2.349 0 0 1 228.8 27.4 A 2.033 2.033 0 0 1 229.271 27.451 Q 229.635 27.538 229.882 27.771 A 1.264 1.264 0 0 1 230 27.9 A 1.833 1.833 0 0 1 230.318 28.477 A 1.674 1.674 0 0 1 230.4 29 Q 228.6 29.5 226.85 30.05 Q 225.1 30.6 223.5 31.1 A 18.469 18.469 0 0 0 225.471 30.739 A 23.317 23.317 0 0 0 226.9 30.35 Q 228.7 29.8 230.7 29.3 A 8.6 8.6 0 0 0 230.712 29.768 Q 230.724 29.993 230.749 30.194 A 5.169 5.169 0 0 0 230.75 30.2 Q 230.793 30.544 230.947 30.961 A 5.356 5.356 0 0 0 231 31.1 A 1.034 1.034 0 0 0 231.149 31.088 Q 231.303 31.066 231.5 31 A 19.684 19.684 0 0 1 231.707 30.932 Q 232.062 30.818 232.171 30.802 A 0.209 0.209 0 0 1 232.2 30.8 Q 233.2 31.3 233.5 32.05 Q 233.8 32.8 233.8 33.7 Q 233.8 34.4 233.6 34.95 Q 233.4 35.5 233.4 35.9 A 7.45 7.45 0 0 0 232.774 35.929 Q 232.122 35.985 231.244 36.145 A 27.327 27.327 0 0 0 230.95 36.2 Q 229.4 36.5 227.85 36.9 Q 226.3 37.3 225.05 37.7 A 28.031 28.031 0 0 0 224.615 37.843 Q 223.945 38.07 223.646 38.218 A 1.356 1.356 0 0 0 223.5 38.3 A 58.228 58.228 0 0 0 226.446 37.772 A 46.566 46.566 0 0 0 228.3 37.35 A 18.302 18.302 0 0 1 231.206 36.877 A 22.577 22.577 0 0 1 233.1 36.8 A 3.993 3.993 0 0 1 232.379 37.748 A 3.546 3.546 0 0 1 231.8 38.2 Q 231 38.7 230.05 38.95 A 16.047 16.047 0 0 1 228.804 39.223 A 19.284 19.284 0 0 1 228 39.35 A 20.393 20.393 0 0 0 226.44 39.627 A 23.988 23.988 0 0 0 225.7 39.8 Z M 46.9 67.7 L 48.1 67.3 A 34.251 34.251 0 0 0 48.393 65.636 Q 48.544 64.622 48.6 63.75 A 44.909 44.909 0 0 0 48.668 62.308 Q 48.692 61.571 48.698 60.754 A 76.257 76.257 0 0 0 48.7 60.2 Q 48.7 54 47.7 47.75 A 37.729 37.729 0 0 0 45.655 40.064 A 32.714 32.714 0 0 0 44 36.45 Q 41.3 31.4 36.5 28.25 A 18.155 18.155 0 0 0 30.832 25.839 Q 28.419 25.244 25.595 25.128 A 33.943 33.943 0 0 0 24.2 25.1 Q 21.4 25.1 18.65 25.45 Q 15.9 25.8 13.2 26.4 A 0.432 0.432 0 0 1 13.303 26.47 A 0.301 0.301 0 0 1 13.4 26.7 A 1.374 1.374 0 0 1 13.397 26.794 Q 13.387 26.936 13.345 26.98 A 0.06 0.06 0 0 1 13.3 27 A 52.602 52.602 0 0 1 20.398 26.007 A 45.439 45.439 0 0 1 23.5 25.9 A 29.151 29.151 0 0 1 28.7 26.341 A 21.264 21.264 0 0 1 34.1 28.05 Q 38.6 30.2 41.55 33.95 A 24.837 24.837 0 0 1 45.407 41.018 A 29.188 29.188 0 0 1 45.95 42.7 A 39.619 39.619 0 0 1 47.392 50.94 A 45.943 45.943 0 0 1 47.5 53.4 Q 46.7 47.6 45.3 42.65 A 28.308 28.308 0 0 0 43.314 37.508 A 23.174 23.174 0 0 0 41.2 34.1 A 18.506 18.506 0 0 0 34.467 28.58 A 21.577 21.577 0 0 0 34.2 28.45 A 19.229 19.229 0 0 0 29.997 27.049 Q 27.957 26.605 25.576 26.465 A 38.711 38.711 0 0 0 23.3 26.4 Q 20.8 26.4 18.3 26.5 Q 15.8 26.6 13.4 27.4 Q 13.9 33.6 14.3 39.7 Q 14.7 45.8 14.7 52 Q 14.7 60.2 14.05 68.15 Q 13.4 76.1 12.9 84.2 Q 13.9 83.2 15.2 82.55 A 17.193 17.193 0 0 0 17.322 81.298 A 15.645 15.645 0 0 0 17.6 81.1 Q 24.5 81.1 30.45 80.7 Q 36.4 80.3 40.8 78.1 A 16.074 16.074 0 0 0 47.579 71.65 A 19.482 19.482 0 0 0 47.75 71.35 Q 50.3 66.8 50.3 58.5 A 68.519 68.519 0 0 0 50.04 52.65 A 81.018 81.018 0 0 0 49.75 49.85 Q 49.2 45.3 47.75 40.95 Q 46.3 36.6 43.8 33 Q 41.5 29.6 38 27.4 Q 41.4 29.7 43.6 33.1 Q 46.1 36.8 47.45 41.1 Q 48.8 45.4 49.35 49.95 Q 49.9 54.5 49.9 58.6 Q 49.9 64.1 48.9 67.75 Q 48.039 70.892 46.585 72.997 A 11.583 11.583 0 0 1 46.1 73.65 Q 44.3 75.9 41.65 77.1 A 22.496 22.496 0 0 1 37.818 78.419 A 27.325 27.325 0 0 1 35.75 78.85 A 62.378 62.378 0 0 1 31.888 79.374 A 80.473 80.473 0 0 1 28.6 79.65 Q 24.7 79.9 20.3 80.2 Q 23.8 78.7 27.85 78.2 A 91.644 91.644 0 0 0 34.708 77.095 A 83.539 83.539 0 0 0 35.65 76.9 A 20.317 20.317 0 0 0 41.052 74.948 A 18.711 18.711 0 0 0 42.4 74.15 Q 45.4 72.2 46.9 67.7 Z M 335.9 57 L 335.3 57 Q 335.6 64 335.95 71 Q 336.3 78 336.5 85 L 336.5 85.5 L 336.2 85.2 L 336.2 84.5 Q 335.7 75.5 335.25 66.75 Q 334.8 58 334.8 49 L 334.8 37.7 Q 334.8 35 334.85 32.35 Q 334.9 29.7 335 27 Q 335.1 23.9 335.5 20.95 A 45.058 45.058 0 0 0 335.892 15.695 A 50.368 50.368 0 0 0 335.9 14.8 L 336.3 14.8 A 8.313 8.313 0 0 0 336.797 14.786 Q 337.188 14.763 337.5 14.7 Q 338 14.6 338.3 14.6 A 1.113 1.113 0 0 1 338.882 14.747 Q 339.301 14.997 339.457 15.675 A 3.103 3.103 0 0 1 339.5 15.9 Q 339.7 17.2 339.7 17.9 L 339.6 20 L 340.8 20 Q 340.892 19.447 341.111 18.259 A 321.628 321.628 0 0 1 341.15 18.05 A 17.438 17.438 0 0 1 341.721 15.823 A 19.726 19.726 0 0 1 341.9 15.3 Q 342.4 13.9 343.05 12.85 A 3.102 3.102 0 0 1 343.424 12.354 Q 343.669 12.094 343.942 11.956 A 1.44 1.44 0 0 1 344.6 11.8 A 1.11 1.11 0 0 1 345.411 12.166 Q 345.771 12.533 346.039 13.267 A 6.538 6.538 0 0 1 346.15 13.6 A 19.934 19.934 0 0 1 346.583 15.299 Q 346.831 16.472 347 17.85 Q 347.3 20.3 347.35 22.85 Q 347.4 25.4 347.4 26.9 L 347.4 28.1 Q 347.4 39.6 347.6 51.1 Q 347.8 62.6 347.8 74.1 A 35.122 35.122 0 0 1 347.753 75.891 A 38.187 38.187 0 0 1 347.75 75.95 Q 347.7 76.9 347.7 77.8 A 8.6 8.6 0 0 0 347.712 78.268 Q 347.724 78.493 347.749 78.694 A 5.169 5.169 0 0 0 347.75 78.7 Q 347.8 79.097 347.8 79.592 A 10.873 10.873 0 0 1 347.8 79.6 L 348.8 79.6 Q 349.7 79.6 350.6 79.65 Q 351.5 79.7 352.4 79.7 Q 358.7 79.7 364.85 79.05 Q 371 78.4 377.3 78.4 L 377.7 78.4 Q 378.468 78.4 379.473 78.548 A 20.638 20.638 0 0 1 380.1 78.65 Q 381.413 78.885 381.495 79.955 A 1.914 1.914 0 0 1 381.5 80.1 L 381.5 80.3 Q 376.2 80.3 371.1 80.65 Q 366 81 360.7 81.5 Q 364.6 81.3 368.45 81 Q 372.3 80.7 376.2 80.7 Q 377.5 80.7 378.7 80.75 A 69.218 69.218 0 0 1 380.556 80.853 A 78.219 78.219 0 0 1 381.2 80.9 L 380.8 82.1 Q 381.259 82.177 381.953 82.282 A 178.994 178.994 0 0 0 382.4 82.35 Q 383.4 82.5 384.35 82.9 A 7.877 7.877 0 0 1 385.34 83.397 A 6.321 6.321 0 0 1 386 83.85 A 2.015 2.015 0 0 1 386.423 84.293 A 1.569 1.569 0 0 1 386.7 85.2 A 2.312 2.312 0 0 1 386.56 86.027 Q 386.274 86.78 385.4 87.15 Q 384.1 87.7 383 88.2 Q 381.5 87.7 379.85 87.65 Q 378.2 87.6 376.6 87.6 Q 373.1 87.6 369.7 87.9 Q 366.5 88.2 363.2 88.5 Q 365.6 88.4 367.8 88.3 Q 370.3 88.2 372.8 88.2 Q 375 88.2 377.15 88.3 Q 379.3 88.4 381.5 88.8 A 13.368 13.368 0 0 1 379.796 89.414 Q 378.947 89.66 377.968 89.845 A 25.422 25.422 0 0 1 377.05 90 Q 374.4 90.4 371.55 90.6 Q 368.7 90.8 365.9 90.85 Q 363.975 90.884 362.381 90.942 A 123.502 123.502 0 0 0 361 91 L 360.1 90 Q 357.9 90.5 355.7 90.65 Q 353.5 90.8 351.2 90.8 Q 348.8 90.8 346.4 90.6 Q 344 90.4 341.7 90 Q 340.6 88.8 339.5 87.65 A 30.847 30.847 0 0 0 337.422 85.676 A 34.2 34.2 0 0 0 337.1 85.4 Q 337.1 78.2 336.75 71.2 Q 336.4 64.2 335.9 57 Z M 12.7 89.4 L 10.5 89.6 Q 9.814 89.171 9.569 87.787 A 7.651 7.651 0 0 1 9.5 87.3 Q 9.3 85.5 9.3 82.9 L 9.3 80.5 L 8.4 80.5 A 86.978 86.978 0 0 0 8.354 80.781 Q 8.239 81.485 7.971 83.168 A 2184.061 2184.061 0 0 0 7.95 83.3 Q 7.6 85.5 7.05 87.95 Q 6.5 90.4 5.75 92.3 A 7.646 7.646 0 0 1 5.439 92.993 Q 5.092 93.667 4.715 93.965 A 0.983 0.983 0 0 1 4.1 94.2 A 0.702 0.702 0 0 1 3.598 93.964 Q 3.177 93.542 2.866 92.361 A 10.952 10.952 0 0 1 2.8 92.1 A 25.237 25.237 0 0 1 2.397 89.988 Q 2.206 88.711 2.1 87.25 Q 1.9 84.5 1.85 81.75 Q 1.801 79.05 1.8 77.748 A 69.806 69.806 0 0 1 1.8 77.7 Q 1.8 70.8 2 64.05 Q 2.2 57.3 2.2 50.5 Q 2.2 43.7 1.1 36.95 Q 0 30.2 0 23.6 Q 1.4 21.8 2.65 19.9 Q 3.9 18 5.1 16 A 175.747 175.747 0 0 1 10.669 14.706 A 195.204 195.204 0 0 1 12.6 14.3 Q 16.5 13.5 20.3 13.5 A 56.934 56.934 0 0 1 28.328 14.036 Q 33.827 14.82 38.25 16.75 A 32.019 32.019 0 0 1 47.194 22.495 A 29.574 29.574 0 0 1 50.4 25.95 A 36.729 36.729 0 0 1 55.865 35.691 A 44.985 44.985 0 0 1 57.3 40.15 A 64.717 64.717 0 0 1 59.191 51.106 A 81.25 81.25 0 0 1 59.5 58.3 A 46.129 46.129 0 0 1 58.683 67.284 Q 56.819 76.661 50.7 82.05 Q 42.956 88.87 29.792 89.688 A 59.506 59.506 0 0 1 26.1 89.8 Q 25.5 89.8 24.2 89.65 A 5.014 5.014 0 0 1 23.549 89.534 Q 22.836 89.354 22.471 88.979 A 1.385 1.385 0 0 1 22.4 88.9 A 685.983 685.983 0 0 0 25.013 88.521 Q 26.797 88.259 28.85 87.95 Q 32.5 87.4 36.2 86.6 Q 39.9 85.8 43.25 84.55 A 21.466 21.466 0 0 0 46.138 83.235 A 15.625 15.625 0 0 0 48.8 81.4 A 29.624 29.624 0 0 1 43.826 84.089 A 26.824 26.824 0 0 1 42.65 84.55 Q 39.5 85.7 36.25 86.3 Q 33 86.9 29.6 87.2 Q 26.2 87.5 22.8 87.9 L 23.1 86.8 L 22.8 86 Q 20.9 86.3 19.35 86.6 A 16.806 16.806 0 0 1 16.575 86.894 A 18.916 18.916 0 0 1 16.1 86.9 Q 14.4 86.9 12.8 86.5 L 12.7 89.4 Z M 69.4 70.9 L 70.5 69.9 Q 70.409 69.444 70.401 69.071 A 3.308 3.308 0 0 1 70.4 69 L 70.4 68 A 25.397 25.397 0 0 1 70.496 65.863 Q 70.588 64.773 70.769 63.567 A 44.25 44.25 0 0 1 70.9 62.75 Q 71.4 59.8 72.05 56.75 Q 72.7 53.7 73.2 50.85 A 39.144 39.144 0 0 0 73.505 48.818 Q 73.7 47.213 73.7 45.9 L 72.5 45.6 A 95.106 95.106 0 0 1 72.287 47.824 Q 72.165 48.957 72.009 50.205 A 158.783 158.783 0 0 1 71.9 51.05 A 875.049 875.049 0 0 1 71.162 56.541 A 963.186 963.186 0 0 1 71.05 57.35 Q 70.6 60.6 70.2 63.8 Q 70 65.5 69.8 67 Q 70 64.2 70.3 61 Q 70.8 56.4 71.35 51.85 Q 71.9 47.3 72.4 42.9 Q 72.9 38.5 73.4 34.8 Q 73.4 33.394 74.059 31.768 A 11.957 11.957 0 0 1 74.15 31.55 Q 74.9 29.8 75.2 27.9 Q 75.591 28.03 75.896 28.076 A 2.075 2.075 0 0 0 76.2 28.1 L 76.9 28.1 A 3.452 3.452 0 0 1 77.33 28.125 Q 77.792 28.183 78.04 28.379 A 0.742 0.742 0 0 1 78.2 28.55 A 1.59 1.59 0 0 1 78.4 28.992 Q 78.459 29.197 78.483 29.443 A 3.654 3.654 0 0 1 78.5 29.8 L 78.5 30.3 L 79.4 30.6 A 9.01 9.01 0 0 1 80.245 29.288 A 6.837 6.837 0 0 1 81.3 28.2 Q 82.222 27.445 83.145 27.323 A 2.709 2.709 0 0 1 83.5 27.3 A 2.22 2.22 0 0 1 83.556 27.301 Q 85.551 27.351 85.848 31.01 A 17.254 17.254 0 0 1 85.9 32.4 A 30.043 30.043 0 0 1 85.685 35.912 A 37.011 37.011 0 0 1 85.35 38.15 A 33.911 33.911 0 0 0 84.809 43.373 A 30.886 30.886 0 0 0 84.8 44.1 L 84.8 45.4 A 33.886 33.886 0 0 1 84.579 49.172 A 44.154 44.154 0 0 1 84.1 52.35 Q 83.4 56.1 82.55 59.95 Q 81.7 63.8 81 67.4 Q 80.3 71 80.3 74 Q 80.3 74.7 80.4 75.5 A 13.221 13.221 0 0 1 80.483 76.415 A 10.691 10.691 0 0 1 80.5 77 A 6.316 6.316 0 0 1 80.474 77.596 Q 80.381 78.576 79.95 78.85 A 2.175 2.175 0 0 1 79.209 79.142 A 3.05 3.05 0 0 1 78.6 79.2 A 43.301 43.301 0 0 0 78.586 78.141 Q 78.563 77.188 78.5 76 A 78.734 78.734 0 0 1 78.428 74.307 Q 78.4 73.397 78.4 72.6 Q 78.2 73.7 78.2 75.6 A 32.391 32.391 0 0 1 78.105 78.118 A 27.701 27.701 0 0 1 78 79.2 L 76.5 79.2 L 76.5 80.4 A 4.012 4.012 0 0 1 75.93 81.191 A 2.428 2.428 0 0 1 74.1 82 Q 73.539 82 72.85 81.743 A 6.143 6.143 0 0 1 72.5 81.6 A 6.334 6.334 0 0 1 71.881 81.286 Q 71.588 81.115 71.356 80.929 A 3.154 3.154 0 0 1 71.1 80.7 A 104.138 104.138 0 0 0 71.393 78.466 Q 71.512 77.48 71.626 76.401 A 182.274 182.274 0 0 0 71.85 74.15 Q 72.2 70.4 72.5 66.6 Q 72.8 62.8 73.1 59.15 Q 73.4 55.5 73.7 52.8 Q 73.27 55.12 72.914 58.031 A 124.467 124.467 0 0 0 72.8 59 Q 72.4 62.5 72 66.2 Q 71.6 69.9 71.2 73.55 Q 70.827 76.958 70.54 79.712 A 783.686 783.686 0 0 0 70.5 80.1 A 3.644 3.644 0 0 1 69.601 79.271 A 3.018 3.018 0 0 1 69 77.4 A 70.617 70.617 0 0 1 69.006 76.441 Q 69.025 75.063 69.1 74.05 A 66.199 66.199 0 0 1 69.189 72.974 Q 69.275 72.025 69.4 70.9 Z M 164.5 70.9 L 165.6 69.9 Q 165.509 69.444 165.501 69.071 A 3.308 3.308 0 0 1 165.5 69 L 165.5 68 A 25.397 25.397 0 0 1 165.596 65.863 Q 165.688 64.773 165.869 63.567 A 44.25 44.25 0 0 1 166 62.75 Q 166.5 59.8 167.15 56.75 Q 167.8 53.7 168.3 50.85 A 39.144 39.144 0 0 0 168.605 48.818 Q 168.8 47.213 168.8 45.9 L 167.6 45.6 A 95.106 95.106 0 0 1 167.387 47.824 Q 167.265 48.957 167.109 50.205 A 158.783 158.783 0 0 1 167 51.05 A 875.049 875.049 0 0 1 166.262 56.541 A 963.186 963.186 0 0 1 166.15 57.35 Q 165.7 60.6 165.3 63.8 Q 165.1 65.5 164.9 67 Q 165.1 64.2 165.4 61 Q 165.9 56.4 166.45 51.85 Q 167 47.3 167.5 42.9 Q 168 38.5 168.5 34.8 Q 168.5 33.394 169.159 31.768 A 11.957 11.957 0 0 1 169.25 31.55 Q 170 29.8 170.3 27.9 Q 170.691 28.03 170.996 28.076 A 2.075 2.075 0 0 0 171.3 28.1 L 172 28.1 A 3.452 3.452 0 0 1 172.43 28.125 Q 172.892 28.183 173.14 28.379 A 0.742 0.742 0 0 1 173.3 28.55 A 1.59 1.59 0 0 1 173.5 28.992 Q 173.559 29.197 173.583 29.443 A 3.654 3.654 0 0 1 173.6 29.8 L 173.6 30.3 L 174.5 30.6 A 9.01 9.01 0 0 1 175.345 29.288 A 6.837 6.837 0 0 1 176.4 28.2 Q 177.322 27.445 178.245 27.323 A 2.709 2.709 0 0 1 178.6 27.3 A 2.22 2.22 0 0 1 178.656 27.301 Q 180.651 27.351 180.948 31.01 A 17.254 17.254 0 0 1 181 32.4 A 30.043 30.043 0 0 1 180.785 35.912 A 37.011 37.011 0 0 1 180.45 38.15 A 33.911 33.911 0 0 0 179.909 43.373 A 30.886 30.886 0 0 0 179.9 44.1 L 179.9 45.4 A 33.886 33.886 0 0 1 179.679 49.172 A 44.154 44.154 0 0 1 179.2 52.35 Q 178.5 56.1 177.65 59.95 Q 176.8 63.8 176.1 67.4 Q 175.4 71 175.4 74 Q 175.4 74.7 175.5 75.5 A 13.221 13.221 0 0 1 175.583 76.415 A 10.691 10.691 0 0 1 175.6 77 A 6.316 6.316 0 0 1 175.574 77.596 Q 175.481 78.576 175.05 78.85 A 2.175 2.175 0 0 1 174.309 79.142 A 3.05 3.05 0 0 1 173.7 79.2 A 43.301 43.301 0 0 0 173.686 78.141 Q 173.663 77.188 173.6 76 A 78.734 78.734 0 0 1 173.528 74.307 Q 173.5 73.397 173.5 72.6 Q 173.3 73.7 173.3 75.6 A 32.391 32.391 0 0 1 173.205 78.118 A 27.701 27.701 0 0 1 173.1 79.2 L 171.6 79.2 L 171.6 80.4 A 4.012 4.012 0 0 1 171.03 81.191 A 2.428 2.428 0 0 1 169.2 82 Q 168.639 82 167.95 81.743 A 6.143 6.143 0 0 1 167.6 81.6 A 6.334 6.334 0 0 1 166.981 81.286 Q 166.688 81.115 166.456 80.929 A 3.154 3.154 0 0 1 166.2 80.7 A 104.138 104.138 0 0 0 166.493 78.466 Q 166.612 77.48 166.726 76.401 A 182.274 182.274 0 0 0 166.95 74.15 Q 167.3 70.4 167.6 66.6 Q 167.9 62.8 168.2 59.15 Q 168.5 55.5 168.8 52.8 Q 168.37 55.12 168.014 58.031 A 124.467 124.467 0 0 0 167.9 59 Q 167.5 62.5 167.1 66.2 Q 166.7 69.9 166.3 73.55 Q 165.927 76.958 165.64 79.712 A 783.686 783.686 0 0 0 165.6 80.1 A 3.644 3.644 0 0 1 164.701 79.271 A 3.018 3.018 0 0 1 164.1 77.4 A 70.617 70.617 0 0 1 164.106 76.441 Q 164.125 75.063 164.2 74.05 A 66.199 66.199 0 0 1 164.289 72.974 Q 164.375 72.025 164.5 70.9 Z M 151.6 83.1 L 151.6 79.9 Q 151.6 74.6 151.15 69.6 Q 150.7 64.6 150.1 59.7 Q 150.5 64.3 151 68.85 Q 151.5 73.4 151.5 78.2 A 69.412 69.412 0 0 1 151.335 82.903 A 81.289 81.289 0 0 1 151.15 85.15 Q 150.8 88.8 149.9 92.4 Q 149 96 147.4 99.4 Q 145.9 102.6 143.6 105.4 Q 147.6 100.8 149.3 95 A 58.857 58.857 0 0 0 151.532 83.838 A 54.674 54.674 0 0 0 151.6 83.1 Z M 93.1 5.5 L 90.8 7.8 A 0.27 0.27 0 0 0 90.753 7.653 Q 90.671 7.527 90.45 7.4 A 2.626 2.626 0 0 0 90.284 7.312 Q 90.112 7.23 89.986 7.208 A 0.503 0.503 0 0 0 89.9 7.2 Q 89.6 8.2 88.9 8.8 A 20.429 20.429 0 0 1 87.678 9.771 A 18.421 18.421 0 0 1 87.5 9.9 A 19.9 19.9 0 0 0 86.275 10.852 A 22.098 22.098 0 0 0 86.1 11 Q 85.4 11.6 85.1 12.6 L 85.1 12.8 Q 85.1 12.889 85.337 12.899 A 1.514 1.514 0 0 0 85.4 12.9 L 90.4 8.2 L 88.5 10.1 A 121.617 121.617 0 0 1 85.935 12.588 A 134.88 134.88 0 0 1 85.55 12.95 Q 84 14.4 82.65 15.5 A 24.779 24.779 0 0 1 82.181 15.874 Q 81.318 16.542 81.043 16.595 A 0.229 0.229 0 0 1 81 16.6 L 80.9 16.5 Q 80.2 16.3 79.45 16.3 A 12.308 12.308 0 0 1 78.124 16.226 A 13.75 13.75 0 0 1 77.9 16.2 A 5.808 5.808 0 0 0 77.807 15.188 A 7.369 7.369 0 0 0 77.65 14.5 Q 77.433 13.72 77.404 13.24 A 2.34 2.34 0 0 1 77.4 13.1 A 0.72 0.72 0 0 1 77.425 12.902 Q 77.511 12.6 77.9 12.6 Q 77.9 12.302 77.555 11.66 A 7.629 7.629 0 0 0 77.55 11.65 A 25.793 25.793 0 0 1 77.211 10.997 Q 77.037 10.651 76.853 10.262 A 43.249 43.249 0 0 1 76.8 10.15 A 22.081 22.081 0 0 1 76.161 8.644 A 24.714 24.714 0 0 1 76.05 8.35 Q 75.7 7.4 75.7 6.4 Q 75.7 5.4 76.55 4.45 Q 77.4 3.5 78.55 2.8 A 22.369 22.369 0 0 1 80.108 1.932 A 19.022 19.022 0 0 1 80.8 1.6 Q 81.859 1.119 82.362 0.915 A 11.178 11.178 0 0 1 82.4 0.9 A 0.512 0.512 0 0 0 82.525 0.886 Q 82.771 0.824 82.707 0.482 A 1.02 1.02 0 0 0 82.7 0.45 A 0.951 0.951 0 0 1 82.688 0.385 Q 82.63 0 83 0 L 84.8 0.6 A 1.846 1.846 0 0 1 84.66 0.87 Q 84.354 1.37 83.55 2.25 Q 82.539 3.357 82.038 3.862 A 15.105 15.105 0 0 1 82 3.9 A 7.333 7.333 0 0 0 82.462 3.539 Q 82.997 3.088 83.65 2.4 Q 84.377 1.634 84.841 1.162 A 38.728 38.728 0 0 1 85.1 0.9 Q 85.6 1.1 86 1.3 Q 86.307 1.454 86.497 1.489 A 0.564 0.564 0 0 0 86.6 1.5 L 86.9 1.2 Q 87.6 1.2 88.45 1.5 A 10.011 10.011 0 0 1 89.524 1.948 A 8.48 8.48 0 0 1 90 2.2 A 6.126 6.126 0 0 1 90.761 2.71 A 5.038 5.038 0 0 1 91.2 3.1 A 3.714 3.714 0 0 1 91.395 3.309 Q 91.7 3.666 91.7 3.9 A 12.426 12.426 0 0 0 88.966 6.097 A 14.235 14.235 0 0 0 88.6 6.5 Q 87.2 8.1 85.7 9.6 A 10.805 10.805 0 0 0 86.938 8.644 A 9.501 9.501 0 0 0 87.3 8.3 Q 88 7.6 88.75 6.9 A 33.419 33.419 0 0 1 89.931 5.85 A 37.156 37.156 0 0 1 90.35 5.5 A 11.591 11.591 0 0 1 91.573 4.624 A 14.108 14.108 0 0 1 92.3 4.2 A 21.552 21.552 0 0 0 92.553 4.531 Q 92.709 4.731 92.85 4.9 A 1.287 1.287 0 0 1 92.995 5.111 Q 93.07 5.25 93.092 5.39 A 0.727 0.727 0 0 1 93.1 5.5 Z M 188.2 5.5 L 185.9 7.8 A 0.27 0.27 0 0 0 185.853 7.653 Q 185.771 7.527 185.55 7.4 A 2.626 2.626 0 0 0 185.384 7.312 Q 185.212 7.23 185.086 7.208 A 0.503 0.503 0 0 0 185 7.2 Q 184.7 8.2 184 8.8 A 20.429 20.429 0 0 1 182.778 9.771 A 18.421 18.421 0 0 1 182.6 9.9 A 19.9 19.9 0 0 0 181.375 10.852 A 22.098 22.098 0 0 0 181.2 11 Q 180.5 11.6 180.2 12.6 L 180.2 12.8 Q 180.2 12.889 180.437 12.899 A 1.514 1.514 0 0 0 180.5 12.9 L 185.5 8.2 L 183.6 10.1 A 121.617 121.617 0 0 1 181.035 12.588 A 134.88 134.88 0 0 1 180.65 12.95 Q 179.1 14.4 177.75 15.5 A 24.779 24.779 0 0 1 177.281 15.874 Q 176.418 16.542 176.143 16.595 A 0.229 0.229 0 0 1 176.1 16.6 L 176 16.5 Q 175.3 16.3 174.55 16.3 A 12.308 12.308 0 0 1 173.224 16.226 A 13.75 13.75 0 0 1 173 16.2 A 5.808 5.808 0 0 0 172.907 15.188 A 7.369 7.369 0 0 0 172.75 14.5 Q 172.533 13.72 172.504 13.24 A 2.34 2.34 0 0 1 172.5 13.1 A 0.72 0.72 0 0 1 172.525 12.902 Q 172.611 12.6 173 12.6 Q 173 12.302 172.655 11.66 A 7.629 7.629 0 0 0 172.65 11.65 A 25.793 25.793 0 0 1 172.311 10.997 Q 172.137 10.651 171.953 10.262 A 43.249 43.249 0 0 1 171.9 10.15 A 22.081 22.081 0 0 1 171.261 8.644 A 24.714 24.714 0 0 1 171.15 8.35 Q 170.8 7.4 170.8 6.4 Q 170.8 5.4 171.65 4.45 Q 172.5 3.5 173.65 2.8 A 22.369 22.369 0 0 1 175.208 1.932 A 19.022 19.022 0 0 1 175.9 1.6 Q 176.959 1.119 177.462 0.915 A 11.178 11.178 0 0 1 177.5 0.9 A 0.512 0.512 0 0 0 177.625 0.886 Q 177.871 0.824 177.807 0.482 A 1.02 1.02 0 0 0 177.8 0.45 A 0.951 0.951 0 0 1 177.788 0.385 Q 177.73 0 178.1 0 L 179.9 0.6 A 1.846 1.846 0 0 1 179.76 0.87 Q 179.454 1.37 178.65 2.25 Q 177.639 3.357 177.138 3.862 A 15.105 15.105 0 0 1 177.1 3.9 A 7.333 7.333 0 0 0 177.562 3.539 Q 178.097 3.088 178.75 2.4 Q 179.477 1.634 179.941 1.162 A 38.728 38.728 0 0 1 180.2 0.9 Q 180.7 1.1 181.1 1.3 Q 181.407 1.454 181.597 1.489 A 0.564 0.564 0 0 0 181.7 1.5 L 182 1.2 Q 182.7 1.2 183.55 1.5 A 10.011 10.011 0 0 1 184.624 1.948 A 8.48 8.48 0 0 1 185.1 2.2 A 6.126 6.126 0 0 1 185.861 2.71 A 5.038 5.038 0 0 1 186.3 3.1 A 3.714 3.714 0 0 1 186.495 3.309 Q 186.8 3.666 186.8 3.9 A 12.426 12.426 0 0 0 184.066 6.097 A 14.235 14.235 0 0 0 183.7 6.5 Q 182.3 8.1 180.8 9.6 A 10.805 10.805 0 0 0 182.038 8.644 A 9.501 9.501 0 0 0 182.4 8.3 Q 183.1 7.6 183.85 6.9 A 33.419 33.419 0 0 1 185.031 5.85 A 37.156 37.156 0 0 1 185.45 5.5 A 11.591 11.591 0 0 1 186.673 4.624 A 14.108 14.108 0 0 1 187.4 4.2 A 21.552 21.552 0 0 0 187.653 4.531 Q 187.809 4.731 187.95 4.9 A 1.287 1.287 0 0 1 188.095 5.111 Q 188.17 5.25 188.192 5.39 A 0.727 0.727 0 0 1 188.2 5.5 Z M 144.1 70.2 L 143.6 64.3 L 143.1 64.9 Q 143.5 68.8 143.85 72.7 Q 144.2 76.6 144.2 80.5 Q 144.2 84.9 143.3 89.1 A 38.546 38.546 0 0 1 141.189 95.717 A 35.365 35.365 0 0 1 140.8 96.6 A 37.697 37.697 0 0 0 142.919 90.935 A 44.277 44.277 0 0 0 143.5 88.7 Q 144.6 84.3 144.6 79.7 Q 144.6 77.4 144.45 75 Q 144.3 72.6 144.1 70.2 Z M 357.3 89 L 356.6 89 A 116.715 116.715 0 0 1 352.888 89.094 A 131.34 131.34 0 0 1 351.6 89.1 Q 348.5 89.1 345.8 88.9 A 27.991 27.991 0 0 1 344.55 88.781 Q 342.825 88.575 342 88.2 L 339 85.3 L 338.1 73.5 L 338.1 75.7 Q 338.1 78 338.4 80.3 Q 338.7 82.6 338.7 84.9 L 338.7 85.5 Q 339.5 86.3 340.25 87.1 Q 341 87.9 341.7 88.8 L 342.4 88.8 Q 344.6 88.8 346.75 89.05 Q 348.9 89.3 351.1 89.3 Q 353.4 89.3 355.6 89.1 A 14.389 14.389 0 0 0 356.639 89.061 A 17.328 17.328 0 0 0 357.3 89 Z M 57.5 58.8 Q 57.5 53.9 56.85 48.9 Q 56.2 43.9 54.8 39.2 Q 56.2 44.3 56.75 49.4 Q 57.3 54.5 57.3 59.7 Q 57.3 62.3 57 65 A 1.89 1.89 0 0 0 56.9 65.591 A 1.801 1.801 0 0 0 56.9 65.6 Q 57.5 62.3 57.5 58.8 Z M 205.1 62.6 L 204.2 47.4 L 203.9 49.2 Q 203.9 55.9 204.35 61.35 A 74.473 74.473 0 0 0 204.671 64.48 Q 205.02 67.269 205.529 69.193 A 19.137 19.137 0 0 0 205.7 69.8 Q 205.7 70.576 205.663 70.906 A 1.809 1.809 0 0 1 205.65 71 A 4.666 4.666 0 0 0 205.622 71.194 Q 205.611 71.282 205.605 71.358 A 2.029 2.029 0 0 0 205.6 71.5 A 0.428 0.428 0 0 0 205.626 71.64 Q 205.669 71.762 205.78 71.912 A 2.072 2.072 0 0 0 205.85 72 Q 206.092 72.29 206.847 72.767 A 14.171 14.171 0 0 0 206.9 72.8 Q 205.5 70.1 205.4 67.5 A 108.985 108.985 0 0 0 205.236 64.367 A 91.011 91.011 0 0 0 205.1 62.6 Z M 124.9 77.7 L 125.6 78 A 16.117 16.117 0 0 0 130.286 76.658 A 15.049 15.049 0 0 0 131.1 76.25 A 22.117 22.117 0 0 0 134.927 73.652 A 20.205 20.205 0 0 0 135.55 73.1 A 33.39 33.39 0 0 0 138.209 70.358 A 29.152 29.152 0 0 0 139 69.4 A 2434.334 2434.334 0 0 0 140.069 68.045 Q 140.913 66.975 141.6 66.1 L 141.4 64.9 Q 140.5 66.2 139.25 67.8 Q 138 69.4 136.9 70.8 Q 135.9 71.8 134.7 72.95 Q 133.5 74.1 132.05 75.05 Q 130.6 76 128.8 76.75 A 13.121 13.121 0 0 1 125.549 77.624 A 15.045 15.045 0 0 1 124.9 77.7 Z M 336.8 85.9 L 341.4 90.7 Q 343.1 91.2 344.95 91.35 A 46.839 46.839 0 0 0 348.179 91.496 A 52.406 52.406 0 0 0 348.8 91.5 A 26.225 26.225 0 0 0 350.544 91.444 A 23.162 23.162 0 0 0 351.1 91.4 L 353 91.4 Q 352.484 91.486 351.821 91.498 A 12.137 12.137 0 0 1 351.6 91.5 Q 350.8 91.6 350 91.6 L 348 91.6 Q 346.8 91.6 345.55 91.5 A 360.073 360.073 0 0 1 343.731 91.35 A 317.677 317.677 0 0 1 343.15 91.3 Q 342 91.2 341.5 91 Q 341.224 90.724 340.608 90.066 A 134.207 134.207 0 0 1 340.5 89.95 Q 339.8 89.2 339 88.4 A 32.135 32.135 0 0 1 338.059 87.42 A 26.378 26.378 0 0 1 337.55 86.85 Q 336.909 86.11 336.803 85.906 A 0.434 0.434 0 0 1 336.8 85.9 Z M 348.1 81.8 L 348.1 82 Q 348.6 82.1 349.15 82.15 Q 349.7 82.2 350.3 82.2 Q 352.9 82.2 355.5 82.1 Q 358.1 82 360.7 81.5 Q 357.5 81.7 354.4 81.7 Q 351.3 81.7 348.1 81.8 Z M 213.6 70.7 Q 213.683 70.7 213.766 70.769 A 0.497 0.497 0 0 1 213.8 70.8 A 0.451 0.451 0 0 0 213.739 70.748 Q 213.67 70.7 213.6 70.7 Q 212.7 69.9 212.4 68.7 A 8.453 8.453 0 0 1 212.342 68.403 Q 212.18 67.488 212.126 66.138 A 36.398 36.398 0 0 1 212.1 64.7 Q 212.1 63.7 212.2 62.75 Q 212.3 61.8 212.4 60.8 L 212.4 65.7 A 7.836 7.836 0 0 0 212.408 66.061 A 6.801 6.801 0 0 0 212.6 67.4 A 87.438 87.438 0 0 1 212.62 67.519 Q 212.805 68.64 212.9 69.4 A 3.349 3.349 0 0 0 213.019 69.744 A 3.631 3.631 0 0 0 213.6 70.7 Z M 299.8 25.5 L 299.7 24.9 L 296.3 33.9 Q 297.3 31.8 298.15 29.7 Q 299 27.6 299.8 25.5 Z M 309.9 24.7 L 310.2 24.5 A 7.938 7.938 0 0 0 310.055 24.104 Q 309.852 23.588 309.5 22.85 A 124.185 124.185 0 0 0 308.484 20.769 A 135.013 135.013 0 0 0 308.45 20.7 A 124.834 124.834 0 0 1 307.431 18.616 A 114.767 114.767 0 0 1 307.4 18.55 Q 307.017 17.746 306.752 17.265 A 8.45 8.45 0 0 0 306.6 17 L 307.7 20.1 L 309.9 24.7 Z M 294.4 17 L 292.2 23.2 L 294.8 17 L 294.4 17 Z M 258.7 20.9 L 258 21.1 L 257.8 24.1 A 13.638 13.638 0 0 1 257.78 24.793 Q 257.744 25.513 257.637 26.478 A 47.149 47.149 0 0 1 257.6 26.8 L 258.7 20.9 Z M 47.7 60.9 L 47.7 57.6 L 47.7 57.8 Q 47.786 58.316 47.798 58.979 A 12.137 12.137 0 0 1 47.8 59.2 A 20.602 20.602 0 0 1 47.624 61.925 A 18.946 18.946 0 0 1 47.6 62.1 Q 47.7 61.5 47.7 60.9 Z M 304.2 13.7 L 306.3 16.4 L 304 12.6 L 304.2 13.7 Z M 346.6 81.5 L 345.5 81.6 L 343.3 81.2 Q 343.9 81.4 345.1 81.95 Q 346.023 82.373 346.591 82.53 A 3.07 3.07 0 0 0 346.9 82.6 L 346.6 81.5 Z M 297.7 15.7 L 297.1 15.7 L 298.4 19 L 298.9 18.9 L 297.7 15.7 Z M 69.6 69.4 L 69.8 67.2 Q 69.7 68.4 69.6 69.4 Z M 164.7 69.4 L 164.9 67.2 Q 164.8 68.4 164.7 69.4 Z M 302.3 24.4 L 302 23.7 L 301.8 24.1 L 302.2 24.9 L 302.3 24.4 Z M 55.9 70.2 Q 56.1 69.6 56.2 69 Q 56.1 69.6 55.9 70.2 Z M 47.7 57.6 Q 47.7 57 47.6 56.5 Q 47.7 57.1 47.7 57.6 Z" vector-effect="non-scaling-stroke"/></g></svg>