<svg width="211.3" height="84" viewBox="0 0 211.3 84" xmlns="http://www.w3.org/2000/svg"><g id="svgGroup" stroke-linecap="round" fill-rule="evenodd" font-size="9pt" stroke="#2079bd00" stroke-width="0.25mm" fill="#2079bd" style="stroke:#2079bd00;stroke-width:0.25mm;fill:#2079bd"><path d="M 107 41.9 L 100.4 38.5 L 100.2 38.2 A 7.398 7.398 0 0 0 100.073 36.869 A 10.087 10.087 0 0 0 99.75 35.6 Q 99.3 34.2 98.7 32.8 Q 98.1 31.4 97.35 30.05 Q 96.6 28.7 96 27.5 L 95.3 27.1 Q 96.6 30.2 98 32.7 Q 99.4 35.2 99.4 38 L 99.9 38.6 L 99 38.2 L 99 37.6 Q 97.2 34.1 95.55 29.95 A 122.998 122.998 0 0 0 93.494 25.075 A 99.931 99.931 0 0 0 92.2 22.3 Q 91.2 29 89.7 35.7 Q 88.2 42.4 85.9 48.7 Q 83.9 54.1 81.1 59.05 Q 78.3 64 76.4 69.5 L 75.6 68.9 L 74.5 69.1 A 1.291 1.291 0 0 1 74.057 68.919 Q 73.736 68.704 73.64 68.287 A 1.735 1.735 0 0 1 73.6 67.9 A 5.436 5.436 0 0 1 73.642 67.251 Q 73.682 66.923 73.758 66.553 A 12.088 12.088 0 0 1 73.9 65.95 A 23.414 23.414 0 0 1 74.513 63.974 A 26.251 26.251 0 0 1 74.65 63.6 Q 75.1 62.4 75.6 61.25 Q 76.1 60.1 76.4 59.4 L 75.5 59.1 A 19.037 19.037 0 0 1 75.358 59.378 Q 74.984 60.094 74.05 61.8 Q 72.9 63.9 71.55 66.1 A 70.782 70.782 0 0 1 70.047 68.448 A 56.438 56.438 0 0 1 68.9 70.1 Q 67.827 71.585 67.163 71.845 A 0.725 0.725 0 0 1 66.9 71.9 Q 66.4 71.6 66.2 70.95 Q 66.043 70.44 66.009 70.022 A 2.757 2.757 0 0 1 66 69.8 A 16.62 16.62 0 0 1 66.152 67.66 Q 66.454 65.355 67.35 62.3 Q 68.7 57.7 70.5 52.75 Q 72.3 47.8 74.15 43.1 Q 76 38.4 77 35.2 A 69.574 69.574 0 0 0 78.066 31.524 A 83.972 83.972 0 0 0 78.65 29.15 Q 79.4 25.9 79.95 22.55 Q 80.5 19.2 80.9 15.9 Q 81.3 12.6 81.6 9.6 Q 83.3 8.3 86.25 7.4 A 74.084 74.084 0 0 0 89.751 6.24 A 60.376 60.376 0 0 0 91.7 5.5 Q 97.1 9.9 101 15.6 A 63.661 63.661 0 0 1 105.89 24.146 A 76.223 76.223 0 0 1 107.8 28.5 A 43.772 43.772 0 0 0 110.15 24.516 A 52.203 52.203 0 0 0 111.15 22.5 Q 112.7 19.2 114 15.65 Q 115.3 12.1 116.5 8.6 A 149.396 149.396 0 0 1 118 4.42 A 121.779 121.779 0 0 1 118.9 2.1 A 32.409 32.409 0 0 1 123.807 0.952 A 35.543 35.543 0 0 1 124.15 0.9 Q 126.9 0.5 129.6 0 Q 132.3 5.6 134.7 10.7 Q 137.1 15.8 139.15 20.95 Q 141.2 26.1 142.85 31.5 A 125.124 125.124 0 0 1 144.776 38.563 A 148.642 148.642 0 0 1 145.8 43.1 Q 146.4 46.3 147.3 49.55 Q 148.2 52.8 148.95 56.1 Q 149.7 59.4 150.25 62.7 Q 150.8 66 150.8 69.3 A 0.989 0.989 0 0 1 150.776 69.507 Q 150.732 69.711 150.608 69.979 A 4.222 4.222 0 0 1 150.55 70.1 A 0.956 0.956 0 0 1 150.116 70.525 Q 149.866 70.654 149.5 70.7 Q 147.9 61.3 146 52.1 Q 144.1 43.1 141.3 34.2 Q 143.8 43.1 145.6 51.9 Q 147.5 61 148.9 70.4 L 147.5 71.2 Q 147.7 72.4 148 73.7 A 11.701 11.701 0 0 1 148.269 75.421 A 10.016 10.016 0 0 1 148.3 76.2 Q 148.3 76.5 148.25 77.45 A 20.131 20.131 0 0 1 148.086 79.151 A 22.093 22.093 0 0 1 148.05 79.4 A 7.457 7.457 0 0 1 147.858 80.31 A 5.502 5.502 0 0 1 147.55 81.15 Q 147.353 81.573 147.076 81.757 A 0.84 0.84 0 0 1 146.6 81.9 Q 146.022 81.9 145.398 81.204 A 4.203 4.203 0 0 1 145.35 81.15 A 8.353 8.353 0 0 1 144.65 80.211 A 10.931 10.931 0 0 1 144.15 79.35 Q 143.6 78.3 143.15 77.35 Q 142.805 76.623 142.607 76.159 A 12.215 12.215 0 0 1 142.5 75.9 A 148.257 148.257 0 0 0 141.703 69.028 Q 141.219 65.522 140.541 61.666 A 240.167 240.167 0 0 0 140.45 61.15 Q 139 53 137 44.65 Q 135 36.3 132.45 28.45 A 144.695 144.695 0 0 0 129.921 21.279 Q 128.63 17.918 127.28 14.989 A 87.916 87.916 0 0 0 127.1 14.6 L 127 15.1 Q 130.2 21.9 132.5 29.05 Q 134.8 36.2 136.5 43.55 Q 138.2 50.9 139.4 58.35 Q 140.6 65.8 141.5 73.1 Q 139.4 68.5 138.15 63.75 Q 136.9 59 135.95 54.25 Q 135 49.5 134.05 44.7 Q 133.1 39.9 131.7 35 L 132.4 33 Q 131 28.9 129.55 24.9 Q 128.1 20.9 126.2 17.1 L 125.8 18.1 Q 125.044 20.163 124.004 22.698 A 206.464 206.464 0 0 1 123 25.1 Q 121.3 29.1 119 32.9 A 40.375 40.375 0 0 1 114.899 38.547 A 36.581 36.581 0 0 1 113.85 39.7 A 16.295 16.295 0 0 1 111.057 42.073 A 12.725 12.725 0 0 1 107.6 43.7 Q 105.5 42.4 103.35 41.25 Q 101.2 40.1 99 38.9 L 99 38.3 L 103 40.5 Q 105 41.6 107 42.8 L 107.8 42.6 Q 111.176 40.637 113.535 38.674 A 26.061 26.061 0 0 0 114.75 37.6 Q 117.4 35.1 119.3 32.1 A 36.205 36.205 0 0 0 121.6 27.84 A 43.752 43.752 0 0 0 122.65 25.35 Q 123.896 22.127 125.475 18.129 A 1591.409 1591.409 0 0 1 126 16.8 L 125.6 15.9 L 125.2 16.8 L 123.5 20.7 Q 122.5 23.1 121.05 25.85 A 95.972 95.972 0 0 1 118.706 30.031 A 107.071 107.071 0 0 1 117.85 31.45 A 65.666 65.666 0 0 1 115.643 34.817 A 54.654 54.654 0 0 1 114.3 36.65 Q 112.53 38.961 110.663 40.402 A 14.772 14.772 0 0 1 110.6 40.45 Q 108.7 41.9 107 41.9 Z M 46.9 57.5 L 48.1 57.1 A 34.251 34.251 0 0 0 48.393 55.436 Q 48.544 54.422 48.6 53.55 A 44.909 44.909 0 0 0 48.668 52.108 Q 48.692 51.371 48.698 50.554 A 76.257 76.257 0 0 0 48.7 50 Q 48.7 43.8 47.7 37.55 A 37.729 37.729 0 0 0 45.655 29.864 A 32.714 32.714 0 0 0 44 26.25 Q 41.3 21.2 36.5 18.05 A 18.155 18.155 0 0 0 30.832 15.639 Q 28.419 15.044 25.595 14.928 A 33.943 33.943 0 0 0 24.2 14.9 Q 21.4 14.9 18.65 15.25 Q 15.9 15.6 13.2 16.2 A 0.432 0.432 0 0 1 13.303 16.27 A 0.301 0.301 0 0 1 13.4 16.5 A 1.374 1.374 0 0 1 13.397 16.594 Q 13.387 16.736 13.345 16.78 A 0.06 0.06 0 0 1 13.3 16.8 A 52.602 52.602 0 0 1 20.398 15.807 A 45.439 45.439 0 0 1 23.5 15.7 A 29.151 29.151 0 0 1 28.7 16.141 A 21.264 21.264 0 0 1 34.1 17.85 Q 38.6 20 41.55 23.75 A 24.837 24.837 0 0 1 45.407 30.818 A 29.188 29.188 0 0 1 45.95 32.5 A 39.619 39.619 0 0 1 47.392 40.74 A 45.943 45.943 0 0 1 47.5 43.2 Q 46.7 37.4 45.3 32.45 A 28.308 28.308 0 0 0 43.314 27.308 A 23.174 23.174 0 0 0 41.2 23.9 A 18.506 18.506 0 0 0 34.467 18.38 A 21.577 21.577 0 0 0 34.2 18.25 A 19.229 19.229 0 0 0 29.997 16.849 Q 27.957 16.405 25.576 16.265 A 38.711 38.711 0 0 0 23.3 16.2 Q 20.8 16.2 18.3 16.3 Q 15.8 16.4 13.4 17.2 Q 13.9 23.4 14.3 29.5 Q 14.7 35.6 14.7 41.8 Q 14.7 50 14.05 57.95 Q 13.4 65.9 12.9 74 Q 13.9 73 15.2 72.35 A 17.193 17.193 0 0 0 17.322 71.098 A 15.645 15.645 0 0 0 17.6 70.9 Q 24.5 70.9 30.45 70.5 Q 36.4 70.1 40.8 67.9 A 16.074 16.074 0 0 0 47.579 61.45 A 19.482 19.482 0 0 0 47.75 61.15 Q 50.3 56.6 50.3 48.3 A 68.519 68.519 0 0 0 50.04 42.45 A 81.018 81.018 0 0 0 49.75 39.65 Q 49.2 35.1 47.75 30.75 Q 46.3 26.4 43.8 22.8 Q 41.5 19.4 38 17.2 Q 41.4 19.5 43.6 22.9 Q 46.1 26.6 47.45 30.9 Q 48.8 35.2 49.35 39.75 Q 49.9 44.3 49.9 48.4 Q 49.9 53.9 48.9 57.55 Q 48.039 60.692 46.585 62.797 A 11.583 11.583 0 0 1 46.1 63.45 Q 44.3 65.7 41.65 66.9 A 22.496 22.496 0 0 1 37.818 68.219 A 27.325 27.325 0 0 1 35.75 68.65 A 62.378 62.378 0 0 1 31.888 69.174 A 80.473 80.473 0 0 1 28.6 69.45 Q 24.7 69.7 20.3 70 Q 23.8 68.5 27.85 68 A 91.644 91.644 0 0 0 34.708 66.895 A 83.539 83.539 0 0 0 35.65 66.7 A 20.317 20.317 0 0 0 41.052 64.748 A 18.711 18.711 0 0 0 42.4 63.95 Q 45.4 62 46.9 57.5 Z M 160.5 46.8 L 159.9 46.8 Q 160.2 53.8 160.55 60.8 Q 160.9 67.8 161.1 74.8 L 161.1 75.3 L 160.8 75 L 160.8 74.3 Q 160.3 65.3 159.85 56.55 Q 159.4 47.8 159.4 38.8 L 159.4 27.5 Q 159.4 24.8 159.45 22.15 Q 159.5 19.5 159.6 16.8 Q 159.7 13.7 160.1 10.75 A 45.058 45.058 0 0 0 160.492 5.495 A 50.368 50.368 0 0 0 160.5 4.6 L 160.9 4.6 A 8.313 8.313 0 0 0 161.397 4.586 Q 161.788 4.563 162.1 4.5 Q 162.6 4.4 162.9 4.4 A 1.113 1.113 0 0 1 163.482 4.547 Q 163.901 4.797 164.057 5.475 A 3.103 3.103 0 0 1 164.1 5.7 Q 164.3 7 164.3 7.7 L 164.2 9.8 L 165.4 9.8 Q 165.492 9.247 165.711 8.059 A 321.628 321.628 0 0 1 165.75 7.85 A 17.438 17.438 0 0 1 166.321 5.623 A 19.726 19.726 0 0 1 166.5 5.1 Q 167 3.7 167.65 2.65 A 3.102 3.102 0 0 1 168.024 2.154 Q 168.269 1.894 168.542 1.756 A 1.44 1.44 0 0 1 169.2 1.6 A 1.11 1.11 0 0 1 170.011 1.966 Q 170.371 2.333 170.639 3.067 A 6.538 6.538 0 0 1 170.75 3.4 A 19.934 19.934 0 0 1 171.183 5.099 Q 171.431 6.272 171.6 7.65 Q 171.9 10.1 171.95 12.65 Q 172 15.2 172 16.7 L 172 17.9 Q 172 29.4 172.2 40.9 Q 172.4 52.4 172.4 63.9 A 35.122 35.122 0 0 1 172.353 65.691 A 38.187 38.187 0 0 1 172.35 65.75 Q 172.3 66.7 172.3 67.6 A 8.6 8.6 0 0 0 172.312 68.068 Q 172.324 68.293 172.349 68.494 A 5.169 5.169 0 0 0 172.35 68.5 Q 172.4 68.897 172.4 69.392 A 10.873 10.873 0 0 1 172.4 69.4 L 173.4 69.4 Q 174.3 69.4 175.2 69.45 Q 176.1 69.5 177 69.5 Q 183.3 69.5 189.45 68.85 Q 195.6 68.2 201.9 68.2 L 202.3 68.2 Q 203.068 68.2 204.073 68.348 A 20.638 20.638 0 0 1 204.7 68.45 Q 206.013 68.685 206.095 69.755 A 1.914 1.914 0 0 1 206.1 69.9 L 206.1 70.1 Q 200.8 70.1 195.7 70.45 Q 190.6 70.8 185.3 71.3 Q 189.2 71.1 193.05 70.8 Q 196.9 70.5 200.8 70.5 Q 202.1 70.5 203.3 70.55 A 69.218 69.218 0 0 1 205.156 70.653 A 78.219 78.219 0 0 1 205.8 70.7 L 205.4 71.9 Q 205.859 71.977 206.553 72.082 A 178.994 178.994 0 0 0 207 72.15 Q 208 72.3 208.95 72.7 A 7.877 7.877 0 0 1 209.94 73.197 A 6.321 6.321 0 0 1 210.6 73.65 A 2.015 2.015 0 0 1 211.023 74.093 A 1.569 1.569 0 0 1 211.3 75 A 2.312 2.312 0 0 1 211.16 75.827 Q 210.874 76.58 210 76.95 Q 208.7 77.5 207.6 78 Q 206.1 77.5 204.45 77.45 Q 202.8 77.4 201.2 77.4 Q 197.7 77.4 194.3 77.7 Q 191.1 78 187.8 78.3 Q 190.2 78.2 192.4 78.1 Q 194.9 78 197.4 78 Q 199.6 78 201.75 78.1 Q 203.9 78.2 206.1 78.6 A 13.368 13.368 0 0 1 204.396 79.214 Q 203.547 79.46 202.568 79.645 A 25.422 25.422 0 0 1 201.65 79.8 Q 199 80.2 196.15 80.4 Q 193.3 80.6 190.5 80.65 Q 188.575 80.684 186.981 80.742 A 123.502 123.502 0 0 0 185.6 80.8 L 184.7 79.8 Q 182.5 80.3 180.3 80.45 Q 178.1 80.6 175.8 80.6 Q 173.4 80.6 171 80.4 Q 168.6 80.2 166.3 79.8 Q 165.2 78.6 164.1 77.45 A 30.847 30.847 0 0 0 162.022 75.476 A 34.2 34.2 0 0 0 161.7 75.2 Q 161.7 68 161.35 61 Q 161 54 160.5 46.8 Z M 12.7 79.2 L 10.5 79.4 Q 9.814 78.971 9.569 77.587 A 7.651 7.651 0 0 1 9.5 77.1 Q 9.3 75.3 9.3 72.7 L 9.3 70.3 L 8.4 70.3 A 86.978 86.978 0 0 0 8.354 70.581 Q 8.239 71.285 7.971 72.968 A 2184.061 2184.061 0 0 0 7.95 73.1 Q 7.6 75.3 7.05 77.75 Q 6.5 80.2 5.75 82.1 A 7.646 7.646 0 0 1 5.439 82.793 Q 5.092 83.467 4.715 83.765 A 0.983 0.983 0 0 1 4.1 84 A 0.702 0.702 0 0 1 3.598 83.764 Q 3.177 83.342 2.866 82.161 A 10.952 10.952 0 0 1 2.8 81.9 A 25.237 25.237 0 0 1 2.397 79.788 Q 2.206 78.511 2.1 77.05 Q 1.9 74.3 1.85 71.55 Q 1.801 68.85 1.8 67.548 A 69.806 69.806 0 0 1 1.8 67.5 Q 1.8 60.6 2 53.85 Q 2.2 47.1 2.2 40.3 Q 2.2 33.5 1.1 26.75 Q 0 20 0 13.4 Q 1.4 11.6 2.65 9.7 Q 3.9 7.8 5.1 5.8 A 175.747 175.747 0 0 1 10.669 4.506 A 195.204 195.204 0 0 1 12.6 4.1 Q 16.5 3.3 20.3 3.3 A 56.934 56.934 0 0 1 28.328 3.836 Q 33.827 4.62 38.25 6.55 A 32.019 32.019 0 0 1 47.194 12.295 A 29.574 29.574 0 0 1 50.4 15.75 A 36.729 36.729 0 0 1 55.865 25.491 A 44.985 44.985 0 0 1 57.3 29.95 A 64.717 64.717 0 0 1 59.191 40.906 A 81.25 81.25 0 0 1 59.5 48.1 A 46.129 46.129 0 0 1 58.683 57.084 Q 56.819 66.461 50.7 71.85 Q 42.956 78.67 29.792 79.488 A 59.506 59.506 0 0 1 26.1 79.6 Q 25.5 79.6 24.2 79.45 A 5.014 5.014 0 0 1 23.549 79.334 Q 22.836 79.154 22.471 78.779 A 1.385 1.385 0 0 1 22.4 78.7 A 685.983 685.983 0 0 0 25.013 78.321 Q 26.797 78.059 28.85 77.75 Q 32.5 77.2 36.2 76.4 Q 39.9 75.6 43.25 74.35 A 21.466 21.466 0 0 0 46.138 73.035 A 15.625 15.625 0 0 0 48.8 71.2 A 29.624 29.624 0 0 1 43.826 73.889 A 26.824 26.824 0 0 1 42.65 74.35 Q 39.5 75.5 36.25 76.1 Q 33 76.7 29.6 77 Q 26.2 77.3 22.8 77.7 L 23.1 76.6 L 22.8 75.8 Q 20.9 76.1 19.35 76.4 A 16.806 16.806 0 0 1 16.575 76.694 A 18.916 18.916 0 0 1 16.1 76.7 Q 14.4 76.7 12.8 76.3 L 12.7 79.2 Z M 181.9 78.8 L 181.2 78.8 A 116.715 116.715 0 0 1 177.488 78.894 A 131.34 131.34 0 0 1 176.2 78.9 Q 173.1 78.9 170.4 78.7 A 27.991 27.991 0 0 1 169.15 78.581 Q 167.425 78.375 166.6 78 L 163.6 75.1 L 162.7 63.3 L 162.7 65.5 Q 162.7 67.8 163 70.1 Q 163.3 72.4 163.3 74.7 L 163.3 75.3 Q 164.1 76.1 164.85 76.9 Q 165.6 77.7 166.3 78.6 L 167 78.6 Q 169.2 78.6 171.35 78.85 Q 173.5 79.1 175.7 79.1 Q 178 79.1 180.2 78.9 A 14.389 14.389 0 0 0 181.239 78.861 A 17.328 17.328 0 0 0 181.9 78.8 Z M 57.5 48.6 Q 57.5 43.7 56.85 38.7 Q 56.2 33.7 54.8 29 Q 56.2 34.1 56.75 39.2 Q 57.3 44.3 57.3 49.5 Q 57.3 52.1 57 54.8 A 1.89 1.89 0 0 0 56.9 55.391 A 1.801 1.801 0 0 0 56.9 55.4 Q 57.5 52.1 57.5 48.6 Z M 161.4 75.7 L 166 80.5 Q 167.7 81 169.55 81.15 A 46.839 46.839 0 0 0 172.779 81.296 A 52.406 52.406 0 0 0 173.4 81.3 A 26.225 26.225 0 0 0 175.144 81.244 A 23.162 23.162 0 0 0 175.7 81.2 L 177.6 81.2 Q 177.084 81.286 176.421 81.298 A 12.137 12.137 0 0 1 176.2 81.3 Q 175.4 81.4 174.6 81.4 L 172.6 81.4 Q 171.4 81.4 170.15 81.3 A 360.073 360.073 0 0 1 168.331 81.15 A 317.677 317.677 0 0 1 167.75 81.1 Q 166.6 81 166.1 80.8 Q 165.824 80.524 165.208 79.866 A 134.207 134.207 0 0 1 165.1 79.75 Q 164.4 79 163.6 78.2 A 32.135 32.135 0 0 1 162.659 77.22 A 26.378 26.378 0 0 1 162.15 76.65 Q 161.509 75.91 161.403 75.706 A 0.434 0.434 0 0 1 161.4 75.7 Z M 172.7 71.6 L 172.7 71.8 Q 173.2 71.9 173.75 71.95 Q 174.3 72 174.9 72 Q 177.5 72 180.1 71.9 Q 182.7 71.8 185.3 71.3 Q 182.1 71.5 179 71.5 Q 175.9 71.5 172.7 71.6 Z M 124.4 15.3 L 124.3 14.7 L 120.9 23.7 Q 121.9 21.6 122.75 19.5 Q 123.6 17.4 124.4 15.3 Z M 134.5 14.5 L 134.8 14.3 A 7.938 7.938 0 0 0 134.655 13.904 Q 134.452 13.388 134.1 12.65 A 124.185 124.185 0 0 0 133.084 10.569 A 135.013 135.013 0 0 0 133.05 10.5 A 124.834 124.834 0 0 1 132.031 8.416 A 114.767 114.767 0 0 1 132 8.35 Q 131.617 7.546 131.352 7.065 A 8.45 8.45 0 0 0 131.2 6.8 L 132.3 9.9 L 134.5 14.5 Z M 119 6.8 L 116.8 13 L 119.4 6.8 L 119 6.8 Z M 83.3 10.7 L 82.6 10.9 L 82.4 13.9 A 13.638 13.638 0 0 1 82.38 14.593 Q 82.344 15.313 82.237 16.278 A 47.149 47.149 0 0 1 82.2 16.6 L 83.3 10.7 Z M 47.7 50.7 L 47.7 47.4 L 47.7 47.6 Q 47.786 48.116 47.798 48.779 A 12.137 12.137 0 0 1 47.8 49 A 20.602 20.602 0 0 1 47.624 51.725 A 18.946 18.946 0 0 1 47.6 51.9 Q 47.7 51.3 47.7 50.7 Z M 128.8 3.5 L 130.9 6.2 L 128.6 2.4 L 128.8 3.5 Z M 171.2 71.3 L 170.1 71.4 L 167.9 71 Q 168.5 71.2 169.7 71.75 Q 170.623 72.173 171.191 72.33 A 3.07 3.07 0 0 0 171.5 72.4 L 171.2 71.3 Z M 122.3 5.5 L 121.7 5.5 L 123 8.8 L 123.5 8.7 L 122.3 5.5 Z M 126.9 14.2 L 126.6 13.5 L 126.4 13.9 L 126.8 14.7 L 126.9 14.2 Z M 55.9 60 Q 56.1 59.4 56.2 58.8 Q 56.1 59.4 55.9 60 Z M 47.7 47.4 Q 47.7 46.8 47.6 46.3 Q 47.7 46.9 47.7 47.4 Z" vector-effect="non-scaling-stroke"/></g></svg>